<svg width="576" height="142" viewBox="0 0 576 142" fill="none" xmlns="http://www.w3.org/2000/svg">
<path d="M123.701 109H33.2994C28.7158 109 25 114.596 25 121.5V121.5C25 128.404 28.7158 134 33.2994 134H123.701C128.284 134 132 128.404 132 121.5C132 114.596 128.284 109 123.701 109Z" fill="#7986CB"/>
<path d="M38.521 36H12.479C5.58702 36 0 41.5964 0 48.5V48.5C0 55.4036 5.58702 61 12.479 61H38.521C45.413 61 51 55.4036 51 48.5C51 41.5964 45.413 36 38.521 36Z" fill="#5EB0AB"/>
<path d="M31.3972 73H19.4499C13.1263 73 8 78.5964 8 85.5V85.5C8 92.4036 13.1263 98 19.4499 98H31.3972C37.7208 98 42.8472 92.4036 42.8472 85.5C42.8472 78.5964 37.7208 73 31.3972 73Z" fill="#FF8A65"/>
<path d="M63.5261 0.247925H32.4499C26.1263 0.247925 21 5.84436 21 12.7479V12.7479C21 19.6515 26.1263 25.2479 32.4499 25.2479H63.5261C69.8497 25.2479 74.976 19.6515 74.976 12.7479C74.976 5.84436 69.8497 0.247925 63.5261 0.247925Z" fill="#7986CB"/>
<path d="M126.384 0H94.0005C88.8596 0 84.6921 5.59644 84.6921 12.5V12.5C84.6921 19.4036 88.8596 25 94.0005 25H126.384C131.525 25 135.692 19.4036 135.692 12.5C135.692 5.59644 131.525 0 126.384 0Z" fill="#5EB0AB"/>
<path d="M67.5 98C74.4036 98 80 92.4036 80 85.5C80 78.5964 74.4036 73 67.5 73C60.5964 73 55 78.5964 55 85.5C55 92.4036 60.5964 98 67.5 98Z" fill="#7986CB"/>
<path d="M242.6 90.16C242.6 92.16 242.08 93.8 241.04 95.08C237.6 99.8 232.96 103.56 227.12 106.36C221.28 109.08 214.68 110.44 207.32 110.44C201 110.44 195.32 109.44 190.28 107.44C182.76 104.48 176.76 99.64 172.28 92.92C167.8 85.96 165.56 77.92 165.56 68.8C165.56 59.52 167.8 51.52 172.28 44.8C173.64 42.64 175.72 40.16 178.52 37.36C181.48 34.4 185.52 31.96 190.64 30.04C195.76 28.12 201.32 27.16 207.32 27.16C221 27.16 231.76 31.72 239.6 40.84C240.96 42.28 241.68 44.08 241.76 46.24C241.68 48.32 241 50 239.72 51.28C238.44 52.56 236.8 53.2 234.8 53.2C232.24 53.04 230.24 52.08 228.8 50.32C226.4 47.2 223.84 45 221.12 43.72C216.72 41.4 212.16 40.24 207.44 40.24C199.44 40.24 192.88 42.92 187.76 48.28C182.72 53.56 180.2 60.4 180.2 68.8C180.2 77.2 182.72 84.08 187.76 89.44C192.88 94.72 199.44 97.36 207.44 97.36C217.2 97.36 224.64 93.6 229.76 86.08C231.2 84.24 233.16 83.28 235.64 83.2C237.8 83.2 239.48 83.84 240.68 85.12C241.96 86.4 242.6 88.08 242.6 90.16ZM284.732 50.08C292.652 50.08 298.692 52.36 302.852 56.92C307.012 61.48 309.092 68.12 309.092 76.84V102.64C309.092 104.88 308.492 106.64 307.292 107.92C306.172 109.12 304.572 109.72 302.492 109.72C300.412 109.72 298.772 109.12 297.572 107.92C296.452 106.64 295.892 104.88 295.892 102.64V78.28C295.892 73.08 294.652 69.12 292.172 66.4C289.692 63.6 286.092 62.2 281.372 62.2C276.412 62.2 272.532 63.8 269.732 67C266.932 70.2 265.532 74.56 265.532 80.08V102.64C265.532 104.88 264.932 106.64 263.732 107.92C262.612 109.12 261.012 109.72 258.932 109.72C256.852 109.72 255.212 109.12 254.012 107.92C252.892 106.64 252.332 104.88 252.332 102.64V31.36C252.332 29.12 252.892 27.4 254.012 26.2C255.212 24.92 256.852 24.28 258.932 24.28C261.012 24.28 262.612 24.92 263.732 26.2C264.932 27.4 265.532 29.12 265.532 31.36V58.24H265.772C270.172 52.8 276.492 50.08 284.732 50.08ZM353.03 50.44C355.03 50.44 356.63 51.04 357.83 52.24C359.03 53.36 359.63 54.96 359.63 57.04C359.63 59.12 359.03 60.76 357.83 61.96C356.63 63.08 355.03 63.64 353.03 63.64C340.87 63.64 334.79 70.36 334.79 83.8V102.64C334.79 104.88 334.19 106.64 332.99 107.92C331.87 109.12 330.27 109.72 328.19 109.72C326.11 109.72 324.47 109.12 323.27 107.92C322.15 106.64 321.59 104.88 321.59 102.64V57.88C321.59 55.72 322.15 54 323.27 52.72C324.47 51.44 326.11 50.8 328.19 50.8C330.27 50.8 331.87 51.44 332.99 52.72C334.19 54 334.79 55.72 334.79 57.88V60.04H335.03C338.87 53.64 344.87 50.44 353.03 50.44ZM361.615 80.32C361.615 76.08 362.535 71.52 364.375 66.64C366.215 62.08 369.735 58.12 374.935 54.76C380.135 51.4 385.975 49.84 392.455 50.08C401.655 50.08 409.055 52.88 414.655 58.48C415.535 59.44 416.335 60.36 417.055 61.24C417.855 62.12 418.495 63.08 418.975 64.12C419.535 65.08 420.015 65.88 420.415 66.52C420.815 67.16 421.175 68.04 421.495 69.16C421.815 70.2 422.055 70.96 422.215 71.44C422.375 71.92 422.535 72.76 422.695 73.96C422.855 75.08 422.935 75.76 422.935 76C423.015 76.24 423.095 77 423.175 78.28C423.255 79.56 423.295 80.24 423.295 80.32C423.295 84.72 422.335 89.28 420.415 94C418.655 98.48 415.135 102.44 409.855 105.88C404.575 109.24 398.775 110.76 392.455 110.44C383.255 110.44 375.815 107.68 370.135 102.16C367.335 99.36 365.415 96.64 364.375 94C362.535 88.88 361.615 84.32 361.615 80.32ZM379.855 67.24C376.655 70.6 375.055 74.96 375.055 80.32C375.055 85.68 376.655 90.04 379.855 93.4C383.135 96.68 387.335 98.32 392.455 98.32C397.655 98.32 401.855 96.68 405.055 93.4C408.255 90.04 409.855 85.68 409.855 80.32C409.855 74.88 408.255 70.52 405.055 67.24C401.855 63.88 397.655 62.2 392.455 62.2C387.335 62.2 383.135 63.88 379.855 67.24ZM467.076 50.08C474.996 50.08 481.036 52.36 485.196 56.92C489.356 61.48 491.436 68.12 491.436 76.84V102.64C491.436 104.88 490.836 106.64 489.636 107.92C488.516 109.12 486.916 109.72 484.836 109.72C482.756 109.72 481.116 109.12 479.916 107.92C478.796 106.64 478.236 104.88 478.236 102.64V78.28C478.236 73.08 476.996 69.12 474.516 66.4C472.036 63.6 468.436 62.2 463.716 62.2C458.756 62.2 454.876 63.8 452.076 67C449.276 70.2 447.876 74.56 447.876 80.08V102.64C447.876 104.88 447.276 106.64 446.076 107.92C444.956 109.12 443.356 109.72 441.276 109.72C439.196 109.72 437.556 109.12 436.356 107.92C435.236 106.64 434.676 104.88 434.676 102.64V57.88C434.676 55.64 435.236 53.92 436.356 52.72C437.556 51.44 439.196 50.8 441.276 50.8C443.356 50.8 444.956 51.44 446.076 52.72C447.276 53.92 447.876 55.64 447.876 57.88V58.24H448.116C452.516 52.8 458.836 50.08 467.076 50.08ZM501.654 80.32C501.654 76.08 502.574 71.52 504.414 66.64C506.254 62.08 509.774 58.12 514.974 54.76C520.174 51.4 526.014 49.84 532.494 50.08C541.694 50.08 549.094 52.88 554.694 58.48C555.574 59.44 556.374 60.36 557.094 61.24C557.894 62.12 558.534 63.08 559.014 64.12C559.574 65.08 560.054 65.88 560.454 66.52C560.854 67.16 561.214 68.04 561.534 69.16C561.854 70.2 562.094 70.96 562.254 71.44C562.414 71.92 562.574 72.76 562.734 73.96C562.894 75.08 562.974 75.76 562.974 76C563.054 76.24 563.134 77 563.214 78.28C563.294 79.56 563.334 80.24 563.334 80.32C563.334 84.72 562.374 89.28 560.454 94C558.694 98.48 555.174 102.44 549.894 105.88C544.614 109.24 538.814 110.76 532.494 110.44C523.294 110.44 515.854 107.68 510.174 102.16C507.374 99.36 505.454 96.64 504.414 94C502.574 88.88 501.654 84.32 501.654 80.32ZM519.894 67.24C516.694 70.6 515.094 74.96 515.094 80.32C515.094 85.68 516.694 90.04 519.894 93.4C523.174 96.68 527.374 98.32 532.494 98.32C537.694 98.32 541.894 96.68 545.094 93.4C548.294 90.04 549.894 85.68 549.894 80.32C549.894 74.88 548.294 70.52 545.094 67.24C541.894 63.88 537.694 62.2 532.494 62.2C527.374 62.2 523.174 63.88 519.894 67.24Z" fill="#424242"/>
</svg>
