<svg width="543" height="556" viewBox="0 0 543 556" fill="none" xmlns="http://www.w3.org/2000/svg">
<rect y="3" width="15.6557" height="15" rx="3" fill="#219653"/>
<rect x="20.8743" y="21" width="57.4044" height="1" rx="0.5" fill="#828282"/>
<path d="M23.4897 15.1367C21.1108 15.1367 19.9214 13.8311 19.9214 11.2197C19.9214 9.9209 20.2449 8.92969 20.8921 8.24609C21.5392 7.55794 22.4666 7.21387 23.6743 7.21387C24.5584 7.21387 25.3514 7.38704 26.0532 7.7334L25.438 9.34668C25.1098 9.21452 24.8045 9.10742 24.5219 9.02539C24.2394 8.9388 23.9568 8.89551 23.6743 8.89551C22.5897 8.89551 22.0473 9.66569 22.0473 11.2061C22.0473 12.7008 22.5897 13.4482 23.6743 13.4482C24.0753 13.4482 24.4467 13.3958 24.7885 13.291C25.1303 13.1816 25.4721 13.013 25.8139 12.7852V14.5693C25.4767 14.7835 25.1349 14.9316 24.7885 15.0137C24.4467 15.0957 24.0138 15.1367 23.4897 15.1367ZM31.8569 7.21387C32.1395 7.21387 32.3742 7.23438 32.561 7.27539L32.4038 9.23047C32.2352 9.1849 32.0301 9.16211 31.7885 9.16211C31.1232 9.16211 30.6036 9.33301 30.2299 9.6748C29.8608 10.0166 29.6762 10.4951 29.6762 11.1104V15H27.5913V7.35742H29.1704L29.478 8.64258H29.5805C29.8175 8.21419 30.1365 7.87012 30.5376 7.61035C30.9432 7.34603 31.3829 7.21387 31.8569 7.21387ZM37.1137 8.69727C36.6717 8.69727 36.3253 8.83854 36.0747 9.12109C35.824 9.39909 35.6805 9.79557 35.644 10.3105H38.5698C38.5607 9.79557 38.4262 9.39909 38.1665 9.12109C37.9067 8.83854 37.5558 8.69727 37.1137 8.69727ZM37.4077 15.1367C36.1772 15.1367 35.2156 14.7972 34.5229 14.1182C33.8302 13.4391 33.4839 12.4775 33.4839 11.2334C33.4839 9.9528 33.8029 8.96387 34.4409 8.2666C35.0835 7.56478 35.9699 7.21387 37.1001 7.21387C38.1801 7.21387 39.021 7.52148 39.6225 8.13672C40.2241 8.75195 40.5249 9.60189 40.5249 10.6865V11.6982H35.5962C35.6189 12.2907 35.7944 12.7533 36.1225 13.0859C36.4507 13.4186 36.9109 13.585 37.5034 13.585C37.9637 13.585 38.3989 13.5371 38.8091 13.4414C39.2192 13.3457 39.6476 13.193 40.0942 12.9834V14.5967C39.7296 14.779 39.34 14.9134 38.9253 15C38.5105 15.0911 38.0047 15.1367 37.4077 15.1367ZM47.0737 15L46.6704 13.9609H46.6157C46.2648 14.403 45.9025 14.7106 45.5288 14.8838C45.1596 15.0524 44.6766 15.1367 44.0796 15.1367C43.3458 15.1367 42.7671 14.9271 42.3432 14.5078C41.924 14.0885 41.7143 13.4915 41.7143 12.7168C41.7143 11.9056 41.9969 11.3086 42.562 10.9258C43.1316 10.5384 43.9884 10.3242 45.1323 10.2832L46.4585 10.2422V9.90723C46.4585 9.13249 46.062 8.74512 45.269 8.74512C44.6583 8.74512 43.9406 8.92969 43.1157 9.29883L42.4253 7.89062C43.3048 7.43034 44.2801 7.2002 45.351 7.2002C46.3764 7.2002 47.1626 7.4235 47.7094 7.87012C48.2563 8.31673 48.5298 8.99577 48.5298 9.90723V15H47.0737ZM46.4585 11.459L45.6518 11.4863C45.0457 11.5046 44.5945 11.6139 44.2983 11.8145C44.0021 12.015 43.854 12.3203 43.854 12.7305C43.854 13.3184 44.1912 13.6123 44.8657 13.6123C45.3488 13.6123 45.7339 13.4733 46.021 13.1953C46.3126 12.9173 46.4585 12.5482 46.4585 12.0879V11.459ZM53.9028 13.4756C54.2674 13.4756 54.7049 13.3958 55.2153 13.2363V14.7881C54.6958 15.0205 54.0577 15.1367 53.3012 15.1367C52.4673 15.1367 51.8589 14.9271 51.476 14.5078C51.0978 14.084 50.9087 13.4505 50.9087 12.6074V8.92285H49.9106V8.04102L51.0591 7.34375L51.6606 5.73047H52.9936V7.35742H55.1333V8.92285H52.9936V12.6074C52.9936 12.9036 53.0757 13.1224 53.2397 13.2637C53.4083 13.4049 53.6294 13.4756 53.9028 13.4756ZM56.6782 5.38184C56.6782 4.7028 57.0564 4.36328 57.813 4.36328C58.5695 4.36328 58.9477 4.7028 58.9477 5.38184C58.9477 5.7054 58.852 5.95833 58.6606 6.14062C58.4738 6.31836 58.1912 6.40723 57.813 6.40723C57.0564 6.40723 56.6782 6.06543 56.6782 5.38184ZM58.852 15H56.7671V7.35742H58.852V15ZM62.8647 15L59.9526 7.35742H62.1333L63.6098 11.7119C63.7739 12.2633 63.8764 12.7852 63.9174 13.2773H63.9585C63.9813 12.8398 64.0838 12.318 64.2661 11.7119L65.7358 7.35742H67.9165L65.0044 15H62.8647ZM72.1821 8.69727C71.74 8.69727 71.3937 8.83854 71.143 9.12109C70.8924 9.39909 70.7488 9.79557 70.7124 10.3105H73.6382C73.629 9.79557 73.4946 9.39909 73.2348 9.12109C72.9751 8.83854 72.6242 8.69727 72.1821 8.69727ZM72.476 15.1367C71.2456 15.1367 70.284 14.7972 69.5913 14.1182C68.8986 13.4391 68.5522 12.4775 68.5522 11.2334C68.5522 9.9528 68.8712 8.96387 69.5092 8.2666C70.1518 7.56478 71.0382 7.21387 72.1684 7.21387C73.2485 7.21387 74.0893 7.52148 74.6909 8.13672C75.2924 8.75195 75.5932 9.60189 75.5932 10.6865V11.6982H70.6645C70.6873 12.2907 70.8628 12.7533 71.1909 13.0859C71.519 13.4186 71.9793 13.585 72.5717 13.585C73.032 13.585 73.4673 13.5371 73.8774 13.4414C74.2876 13.3457 74.716 13.193 75.1626 12.9834V14.5967C74.798 14.779 74.4083 14.9134 73.9936 15C73.5789 15.0911 73.073 15.1367 72.476 15.1367ZM85.6421 15L85.4165 13.9336H85.3618C84.9881 14.403 84.6144 14.722 84.2407 14.8906C83.8716 15.0547 83.409 15.1367 82.853 15.1367C82.1102 15.1367 81.5268 14.9453 81.103 14.5625C80.6837 14.1797 80.4741 13.6351 80.4741 12.9287C80.4741 11.4157 81.6841 10.6227 84.104 10.5498L85.3755 10.5088V10.0439C85.3755 9.45605 85.2479 9.02311 84.9926 8.74512C84.742 8.46257 84.3387 8.32129 83.7827 8.32129C83.1583 8.32129 82.452 8.5127 81.6635 8.89551L81.3149 8.02734C81.6841 7.82682 82.0874 7.6696 82.5249 7.55566C82.9669 7.44173 83.409 7.38477 83.851 7.38477C84.7443 7.38477 85.4051 7.58301 85.8335 7.97949C86.2664 8.37598 86.4829 9.01172 86.4829 9.88672V15H85.6421ZM83.0786 14.2002C83.785 14.2002 84.3387 14.0065 84.7397 13.6191C85.1453 13.2318 85.3481 12.6895 85.3481 11.9922V11.3154L84.2133 11.3633C83.311 11.3952 82.6593 11.5365 82.2583 11.7871C81.8618 12.0332 81.6635 12.4183 81.6635 12.9424C81.6635 13.3525 81.7866 13.6647 82.0327 13.8789C82.2833 14.0931 82.632 14.2002 83.0786 14.2002ZM91.8217 15.1367C90.7371 15.1367 89.8963 14.804 89.2993 14.1387C88.7068 13.4688 88.4106 12.5231 88.4106 11.3018C88.4106 10.0485 88.7114 9.08008 89.313 8.39648C89.9191 7.71289 90.7804 7.37109 91.8969 7.37109C92.257 7.37109 92.617 7.40983 92.977 7.4873C93.337 7.56478 93.6196 7.65592 93.8247 7.76074L93.476 8.72461C93.2254 8.62435 92.952 8.54232 92.6557 8.47852C92.3595 8.41016 92.0975 8.37598 91.8696 8.37598C90.3475 8.37598 89.5864 9.34668 89.5864 11.2881C89.5864 12.2087 89.771 12.915 90.1401 13.4072C90.5138 13.8994 91.0652 14.1455 91.7944 14.1455C92.4188 14.1455 93.0591 14.0111 93.7153 13.7422V14.7471C93.214 15.0068 92.5828 15.1367 91.8217 15.1367ZM97.9194 14.2002C98.1199 14.2002 98.3136 14.1865 98.5005 14.1592C98.6873 14.1273 98.8354 14.0954 98.9448 14.0635V14.9316C98.8217 14.9909 98.6395 15.0387 98.3979 15.0752C98.1609 15.1162 97.9467 15.1367 97.7553 15.1367C96.3061 15.1367 95.5815 14.3734 95.5815 12.8467V8.38965H94.5083V7.84277L95.5815 7.37109L96.06 5.77148H96.7163V7.50781H98.8901V8.38965H96.7163V12.7988C96.7163 13.25 96.8234 13.5964 97.0376 13.8379C97.2518 14.0794 97.5457 14.2002 97.9194 14.2002ZM101.583 15H100.449V7.50781H101.583V15ZM100.353 5.47754C100.353 5.21777 100.417 5.02865 100.544 4.91016C100.672 4.78711 100.832 4.72559 101.023 4.72559C101.205 4.72559 101.362 4.78711 101.495 4.91016C101.627 5.0332 101.693 5.22233 101.693 5.47754C101.693 5.73275 101.627 5.92415 101.495 6.05176C101.362 6.1748 101.205 6.23633 101.023 6.23633C100.832 6.23633 100.672 6.1748 100.544 6.05176C100.417 5.92415 100.353 5.73275 100.353 5.47754ZM105.63 15L102.787 7.50781H104.003L105.617 11.9512C105.981 12.9902 106.195 13.6647 106.259 13.9746H106.314C106.364 13.7331 106.521 13.234 106.786 12.4775C107.054 11.7165 107.654 10.0599 108.583 7.50781H109.8L106.957 15H105.63ZM112.138 15H111.003V7.50781H112.138V15ZM110.908 5.47754C110.908 5.21777 110.971 5.02865 111.099 4.91016C111.227 4.78711 111.386 4.72559 111.578 4.72559C111.76 4.72559 111.917 4.78711 112.049 4.91016C112.181 5.0332 112.248 5.22233 112.248 5.47754C112.248 5.73275 112.181 5.92415 112.049 6.05176C111.917 6.1748 111.76 6.23633 111.578 6.23633C111.386 6.23633 111.227 6.1748 111.099 6.05176C110.971 5.92415 110.908 5.73275 110.908 5.47754ZM116.964 14.2002C117.165 14.2002 117.359 14.1865 117.545 14.1592C117.732 14.1273 117.88 14.0954 117.99 14.0635V14.9316C117.867 14.9909 117.684 15.0387 117.443 15.0752C117.206 15.1162 116.992 15.1367 116.8 15.1367C115.351 15.1367 114.626 14.3734 114.626 12.8467V8.38965H113.553V7.84277L114.626 7.37109L115.105 5.77148H115.761V7.50781H117.935V8.38965H115.761V12.7988C115.761 13.25 115.868 13.5964 116.082 13.8379C116.297 14.0794 116.591 14.2002 116.964 14.2002ZM118.304 7.50781H119.521L121.162 11.7803C121.522 12.7555 121.745 13.4596 121.832 13.8926H121.886C121.945 13.6602 122.068 13.2637 122.255 12.7031C122.447 12.138 123.067 10.4062 124.115 7.50781H125.332L122.112 16.0391C121.793 16.8822 121.419 17.4792 120.991 17.8301C120.567 18.1855 120.045 18.3633 119.425 18.3633C119.079 18.3633 118.737 18.3245 118.4 18.2471V17.3379C118.651 17.3926 118.931 17.4199 119.241 17.4199C120.02 17.4199 120.576 16.9824 120.909 16.1074L121.326 15.041L118.304 7.50781Z" fill="#4F4F4F"/>
<g filter="url(#filter0_b)">
<rect x="496" y="541" width="15" height="15" rx="3" fill="#219653"/>
</g>
<rect opacity="0.8" x="478" y="541" width="15" height="15" rx="3" fill="#219653"/>
<rect opacity="0.6" x="460" y="541" width="15" height="15" rx="3" fill="#219653"/>
<rect x="424" y="541" width="15" height="15" rx="3" fill="#E0E0E0"/>
<rect opacity="0.4" x="442" y="541" width="15" height="15" rx="3" fill="#219653"/>
<path d="M397.981 552V544.861H398.812V551.248H401.961V552H397.981ZM405.315 552.098C404.524 552.098 403.899 551.857 403.44 551.375C402.985 550.893 402.757 550.224 402.757 549.368C402.757 548.506 402.968 547.82 403.392 547.312C403.818 546.805 404.389 546.551 405.105 546.551C405.776 546.551 406.307 546.772 406.697 547.215C407.088 547.654 407.283 548.235 407.283 548.958V549.471H403.597C403.613 550.099 403.771 550.576 404.07 550.901C404.373 551.227 404.798 551.39 405.345 551.39C405.921 551.39 406.491 551.269 407.054 551.028V551.751C406.767 551.875 406.495 551.963 406.238 552.015C405.984 552.07 405.677 552.098 405.315 552.098ZM405.096 547.229C404.666 547.229 404.323 547.369 404.065 547.649C403.812 547.929 403.662 548.317 403.616 548.812H406.414C406.414 548.3 406.3 547.91 406.072 547.64C405.844 547.366 405.519 547.229 405.096 547.229ZM412.122 550.54C412.122 551.038 411.937 551.422 411.565 551.692C411.194 551.963 410.674 552.098 410.003 552.098C409.293 552.098 408.74 551.985 408.343 551.761V551.009C408.6 551.139 408.875 551.242 409.168 551.316C409.464 551.391 409.749 551.429 410.022 551.429C410.446 551.429 410.771 551.362 410.999 551.229C411.227 551.092 411.341 550.885 411.341 550.608C411.341 550.4 411.25 550.223 411.067 550.076C410.888 549.926 410.537 549.751 410.013 549.549C409.515 549.363 409.16 549.202 408.948 549.065C408.74 548.925 408.584 548.768 408.479 548.592C408.379 548.416 408.328 548.206 408.328 547.962C408.328 547.526 408.506 547.182 408.86 546.932C409.215 546.678 409.702 546.551 410.32 546.551C410.896 546.551 411.46 546.668 412.01 546.902L411.722 547.562C411.185 547.34 410.698 547.229 410.262 547.229C409.878 547.229 409.588 547.29 409.393 547.41C409.197 547.531 409.1 547.697 409.1 547.908C409.1 548.051 409.135 548.174 409.207 548.274C409.282 548.375 409.401 548.471 409.563 548.562C409.726 548.654 410.039 548.785 410.501 548.958C411.136 549.189 411.564 549.422 411.785 549.656C412.01 549.891 412.122 550.185 412.122 550.54ZM416.897 550.54C416.897 551.038 416.712 551.422 416.341 551.692C415.97 551.963 415.449 552.098 414.778 552.098C414.069 552.098 413.515 551.985 413.118 551.761V551.009C413.375 551.139 413.65 551.242 413.943 551.316C414.24 551.391 414.524 551.429 414.798 551.429C415.221 551.429 415.547 551.362 415.774 551.229C416.002 551.092 416.116 550.885 416.116 550.608C416.116 550.4 416.025 550.223 415.843 550.076C415.664 549.926 415.312 549.751 414.788 549.549C414.29 549.363 413.935 549.202 413.724 549.065C413.515 548.925 413.359 548.768 413.255 548.592C413.154 548.416 413.104 548.206 413.104 547.962C413.104 547.526 413.281 547.182 413.636 546.932C413.991 546.678 414.477 546.551 415.096 546.551C415.672 546.551 416.235 546.668 416.785 546.902L416.497 547.562C415.96 547.34 415.473 547.229 415.037 547.229C414.653 547.229 414.363 547.29 414.168 547.41C413.973 547.531 413.875 547.697 413.875 547.908C413.875 548.051 413.911 548.174 413.982 548.274C414.057 548.375 414.176 548.471 414.339 548.562C414.502 548.654 414.814 548.785 415.276 548.958C415.911 549.189 416.339 549.422 416.561 549.656C416.785 549.891 416.897 550.185 416.897 550.54Z" fill="#333333"/>
<path d="M521.141 552L518.719 545.672H518.68C518.725 546.173 518.748 546.769 518.748 547.459V552H517.981V544.861H519.231L521.492 550.75H521.531L523.812 544.861H525.052V552H524.222V547.4C524.222 546.873 524.244 546.3 524.29 545.682H524.251L521.81 552H521.141ZM531.512 549.319C531.512 550.192 531.292 550.874 530.853 551.365C530.413 551.854 529.806 552.098 529.031 552.098C528.553 552.098 528.128 551.985 527.757 551.761C527.386 551.536 527.099 551.214 526.897 550.794C526.696 550.374 526.595 549.882 526.595 549.319C526.595 548.447 526.813 547.768 527.249 547.283C527.685 546.795 528.291 546.551 529.065 546.551C529.814 546.551 530.408 546.8 530.848 547.298C531.29 547.796 531.512 548.47 531.512 549.319ZM527.435 549.319C527.435 550.003 527.571 550.524 527.845 550.882C528.118 551.24 528.52 551.419 529.051 551.419C529.581 551.419 529.983 551.242 530.257 550.887C530.534 550.529 530.672 550.006 530.672 549.319C530.672 548.639 530.534 548.123 530.257 547.771C529.983 547.417 529.578 547.239 529.041 547.239C528.51 547.239 528.11 547.413 527.84 547.762C527.57 548.11 527.435 548.629 527.435 549.319ZM535.379 546.551C535.617 546.551 535.83 546.57 536.019 546.609L535.906 547.361C535.685 547.312 535.49 547.288 535.32 547.288C534.887 547.288 534.516 547.464 534.207 547.815C533.901 548.167 533.748 548.605 533.748 549.129V552H532.938V546.648H533.606L533.699 547.64H533.738C533.937 547.291 534.176 547.023 534.456 546.834C534.736 546.645 535.044 546.551 535.379 546.551ZM539.28 552.098C538.489 552.098 537.864 551.857 537.405 551.375C536.95 550.893 536.722 550.224 536.722 549.368C536.722 548.506 536.933 547.82 537.356 547.312C537.783 546.805 538.354 546.551 539.07 546.551C539.741 546.551 540.271 546.772 540.662 547.215C541.053 547.654 541.248 548.235 541.248 548.958V549.471H537.562C537.578 550.099 537.736 550.576 538.035 550.901C538.338 551.227 538.763 551.39 539.31 551.39C539.886 551.39 540.455 551.269 541.019 551.028V551.751C540.732 551.875 540.46 551.963 540.203 552.015C539.949 552.07 539.642 552.098 539.28 552.098ZM539.061 547.229C538.631 547.229 538.287 547.369 538.03 547.649C537.776 547.929 537.627 548.317 537.581 548.812H540.379C540.379 548.3 540.265 547.91 540.037 547.64C539.809 547.366 539.484 547.229 539.061 547.229Z" fill="#333333"/>
<rect x="469.5" y="0.5" width="32" height="31" rx="1.5" fill="#F8F8F8" stroke="#E0E0E0"/>
<path d="M495.547 23.1094H478.078V7.26562C478.078 7.15391 477.987 7.0625 477.875 7.0625H476.453C476.341 7.0625 476.25 7.15391 476.25 7.26562V24.7344C476.25 24.8461 476.341 24.9375 476.453 24.9375H495.547C495.659 24.9375 495.75 24.8461 495.75 24.7344V23.3125C495.75 23.2008 495.659 23.1094 495.547 23.1094ZM480.312 21.0781H481.734C481.846 21.0781 481.938 20.9867 481.938 20.875V17.2188C481.938 17.107 481.846 17.0156 481.734 17.0156H480.312C480.201 17.0156 480.109 17.107 480.109 17.2188V20.875C480.109 20.9867 480.201 21.0781 480.312 21.0781ZM484.172 21.0781H485.594C485.705 21.0781 485.797 20.9867 485.797 20.875V12.75C485.797 12.6383 485.705 12.5469 485.594 12.5469H484.172C484.06 12.5469 483.969 12.6383 483.969 12.75V20.875C483.969 20.9867 484.06 21.0781 484.172 21.0781ZM488.031 21.0781H489.453C489.565 21.0781 489.656 20.9867 489.656 20.875V14.7305C489.656 14.6187 489.565 14.5273 489.453 14.5273H488.031C487.92 14.5273 487.828 14.6187 487.828 14.7305V20.875C487.828 20.9867 487.92 21.0781 488.031 21.0781ZM491.891 21.0781H493.312C493.424 21.0781 493.516 20.9867 493.516 20.875V10.7188C493.516 10.607 493.424 10.5156 493.312 10.5156H491.891C491.779 10.5156 491.688 10.607 491.688 10.7188V20.875C491.688 20.9867 491.779 21.0781 491.891 21.0781Z" fill="#828282"/>
<rect x="505.5" y="0.5" width="32" height="31" rx="1.5" fill="#F8F8F8" stroke="#4F4F4F"/>
<path d="M514 8H518V12H514V8ZM520 8H524V12H520V8ZM526 8H530V12H526V8ZM514 14H518V18H514V14ZM520 14H524V18H520V14ZM526 14H530V18H526V14ZM514 20H518V24H514V20ZM520 20H524V24H520V20ZM526 20H530V24H526V20Z" fill="#828282"/>
<path d="M150.797 15L147.406 6.14062H147.352C147.415 6.84245 147.447 7.67643 147.447 8.64258V15H146.374V5.00586H148.124L151.289 13.25H151.344L154.536 5.00586H156.272V15H155.11V8.56055C155.11 7.82227 155.142 7.02018 155.206 6.1543H155.151L151.733 15H150.797ZM163.457 15L163.231 13.9336H163.177C162.803 14.403 162.429 14.722 162.056 14.8906C161.687 15.0547 161.224 15.1367 160.668 15.1367C159.925 15.1367 159.342 14.9453 158.918 14.5625C158.499 14.1797 158.289 13.6351 158.289 12.9287C158.289 11.4157 159.499 10.6227 161.919 10.5498L163.19 10.5088V10.0439C163.19 9.45605 163.063 9.02311 162.808 8.74512C162.557 8.46257 162.154 8.32129 161.598 8.32129C160.973 8.32129 160.267 8.5127 159.479 8.89551L159.13 8.02734C159.499 7.82682 159.902 7.6696 160.34 7.55566C160.782 7.44173 161.224 7.38477 161.666 7.38477C162.559 7.38477 163.22 7.58301 163.648 7.97949C164.081 8.37598 164.298 9.01172 164.298 9.88672V15H163.457ZM160.894 14.2002C161.6 14.2002 162.154 14.0065 162.555 13.6191C162.96 13.2318 163.163 12.6895 163.163 11.9922V11.3154L162.028 11.3633C161.126 11.3952 160.474 11.5365 160.073 11.7871C159.677 12.0332 159.479 12.4183 159.479 12.9424C159.479 13.3525 159.602 13.6647 159.848 13.8789C160.098 14.0931 160.447 14.2002 160.894 14.2002ZM165.453 7.50781H166.67L168.311 11.7803C168.671 12.7555 168.894 13.4596 168.98 13.8926H169.035C169.094 13.6602 169.217 13.2637 169.404 12.7031C169.596 12.138 170.215 10.4062 171.264 7.50781H172.48L169.261 16.0391C168.942 16.8822 168.568 17.4792 168.14 17.8301C167.716 18.1855 167.194 18.3633 166.574 18.3633C166.228 18.3633 165.886 18.3245 165.549 18.2471V17.3379C165.799 17.3926 166.08 17.4199 166.39 17.4199C167.169 17.4199 167.725 16.9824 168.058 16.1074L168.475 15.041L165.453 7.50781ZM183.384 15H176.814V14.0225L179.446 11.377C180.248 10.5658 180.777 9.98698 181.032 9.64062C181.287 9.29427 181.479 8.95703 181.606 8.62891C181.734 8.30078 181.798 7.94759 181.798 7.56934C181.798 7.03613 181.636 6.61458 181.312 6.30469C180.989 5.99023 180.54 5.83301 179.966 5.83301C179.551 5.83301 179.157 5.90137 178.783 6.03809C178.414 6.1748 178.002 6.42318 177.546 6.7832L176.944 6.01074C177.865 5.24512 178.868 4.8623 179.952 4.8623C180.891 4.8623 181.627 5.10384 182.16 5.58691C182.693 6.06543 182.96 6.71029 182.96 7.52148C182.96 8.15495 182.782 8.78158 182.427 9.40137C182.071 10.0212 181.406 10.805 180.431 11.7529L178.243 13.8926V13.9473H183.384V15ZM191.45 9.98926C191.45 11.7165 191.177 13.0062 190.63 13.8584C190.088 14.7106 189.256 15.1367 188.135 15.1367C187.059 15.1367 186.241 14.7015 185.681 13.8311C185.12 12.9561 184.84 11.6755 184.84 9.98926C184.84 8.24837 185.111 6.95638 185.653 6.11328C186.196 5.27018 187.023 4.84863 188.135 4.84863C189.219 4.84863 190.042 5.28841 190.603 6.16797C191.168 7.04753 191.45 8.32129 191.45 9.98926ZM185.988 9.98926C185.988 11.443 186.159 12.5026 186.501 13.168C186.843 13.8288 187.387 14.1592 188.135 14.1592C188.891 14.1592 189.438 13.8242 189.775 13.1543C190.117 12.4798 190.288 11.4248 190.288 9.98926C190.288 8.55371 190.117 7.50326 189.775 6.83789C189.438 6.16797 188.891 5.83301 188.135 5.83301C187.387 5.83301 186.843 6.16341 186.501 6.82422C186.159 7.48047 185.988 8.53548 185.988 9.98926ZM199.407 15H192.838V14.0225L195.47 11.377C196.272 10.5658 196.8 9.98698 197.056 9.64062C197.311 9.29427 197.502 8.95703 197.63 8.62891C197.757 8.30078 197.821 7.94759 197.821 7.56934C197.821 7.03613 197.66 6.61458 197.336 6.30469C197.012 5.99023 196.563 5.83301 195.989 5.83301C195.575 5.83301 195.18 5.90137 194.807 6.03809C194.438 6.1748 194.025 6.42318 193.569 6.7832L192.968 6.01074C193.888 5.24512 194.891 4.8623 195.976 4.8623C196.914 4.8623 197.65 5.10384 198.184 5.58691C198.717 6.06543 198.983 6.71029 198.983 7.52148C198.983 8.15495 198.806 8.78158 198.45 9.40137C198.095 10.0212 197.429 10.805 196.454 11.7529L194.267 13.8926V13.9473H199.407V15ZM207.474 9.98926C207.474 11.7165 207.2 13.0062 206.653 13.8584C206.111 14.7106 205.279 15.1367 204.158 15.1367C203.083 15.1367 202.265 14.7015 201.704 13.8311C201.144 12.9561 200.863 11.6755 200.863 9.98926C200.863 8.24837 201.134 6.95638 201.677 6.11328C202.219 5.27018 203.046 4.84863 204.158 4.84863C205.243 4.84863 206.065 5.28841 206.626 6.16797C207.191 7.04753 207.474 8.32129 207.474 9.98926ZM202.012 9.98926C202.012 11.443 202.183 12.5026 202.524 13.168C202.866 13.8288 203.411 14.1592 204.158 14.1592C204.915 14.1592 205.462 13.8242 205.799 13.1543C206.141 12.4798 206.312 11.4248 206.312 9.98926C206.312 8.55371 206.141 7.50326 205.799 6.83789C205.462 6.16797 204.915 5.83301 204.158 5.83301C203.411 5.83301 202.866 6.16341 202.524 6.82422C202.183 7.48047 202.012 8.53548 202.012 9.98926Z" fill="#4F4F4F"/>
<path d="M54.0137 62.3408C54.0137 63.2204 53.6947 63.9062 53.0566 64.3984C52.4186 64.8906 51.5527 65.1367 50.459 65.1367C49.2741 65.1367 48.3626 64.984 47.7246 64.6787V63.5576C48.1348 63.7308 48.5814 63.8675 49.0645 63.9678C49.5475 64.068 50.026 64.1182 50.5 64.1182C51.2747 64.1182 51.8581 63.9723 52.25 63.6807C52.6419 63.3844 52.8379 62.9743 52.8379 62.4502C52.8379 62.1038 52.7673 61.8213 52.626 61.6025C52.4893 61.3792 52.2568 61.1742 51.9287 60.9873C51.6051 60.8005 51.1107 60.5885 50.4453 60.3516C49.5156 60.0189 48.8503 59.6247 48.4492 59.1689C48.0527 58.7132 47.8545 58.1185 47.8545 57.3848C47.8545 56.6146 48.1439 56.0016 48.7227 55.5459C49.3014 55.0902 50.0671 54.8623 51.0195 54.8623C52.013 54.8623 52.9268 55.0446 53.7607 55.4092L53.3984 56.4209C52.5736 56.0745 51.7715 55.9014 50.9922 55.9014C50.377 55.9014 49.8962 56.0335 49.5498 56.2979C49.2035 56.5622 49.0303 56.929 49.0303 57.3984C49.0303 57.7448 49.0941 58.0296 49.2217 58.2529C49.3493 58.4717 49.5635 58.6745 49.8643 58.8613C50.1696 59.0436 50.6344 59.2464 51.2588 59.4697C52.307 59.8434 53.027 60.2445 53.4189 60.6729C53.8154 61.1012 54.0137 61.6572 54.0137 62.3408ZM56.9531 57.5078V62.3682C56.9531 62.9788 57.0921 63.4346 57.3701 63.7354C57.6481 64.0361 58.0833 64.1865 58.6758 64.1865C59.4596 64.1865 60.0316 63.9723 60.3916 63.5439C60.7562 63.1156 60.9385 62.416 60.9385 61.4453V57.5078H62.0732V65H61.1367L60.9727 63.9951H60.9111C60.6787 64.3643 60.3551 64.6468 59.9404 64.8428C59.5303 65.0387 59.0609 65.1367 58.5322 65.1367C57.6208 65.1367 56.9372 64.9202 56.4814 64.4873C56.0303 64.0544 55.8047 63.3617 55.8047 62.4092V57.5078H56.9531ZM69.6133 65V60.1533C69.6133 59.5426 69.4743 59.0869 69.1963 58.7861C68.9183 58.4854 68.4831 58.335 67.8906 58.335C67.1068 58.335 66.5326 58.5469 66.168 58.9707C65.8034 59.3945 65.6211 60.0941 65.6211 61.0693V65H64.4863V57.5078H65.4092L65.5938 58.5332H65.6484C65.8809 58.1641 66.2067 57.8792 66.626 57.6787C67.0452 57.4736 67.5124 57.3711 68.0273 57.3711C68.9297 57.3711 69.6087 57.5898 70.0645 58.0273C70.5202 58.4603 70.748 59.1553 70.748 60.1123V65H69.6133Z" fill="#4F4F4F"/>
<path d="M125.797 65L122.406 56.1406H122.352C122.415 56.8424 122.447 57.6764 122.447 58.6426V65H121.374V55.0059H123.124L126.289 63.25H126.344L129.536 55.0059H131.272V65H130.11V58.5605C130.11 57.8223 130.142 57.0202 130.206 56.1543H130.151L126.733 65H125.797ZM140.316 61.2471C140.316 62.4684 140.009 63.4232 139.394 64.1113C138.778 64.7949 137.928 65.1367 136.844 65.1367C136.174 65.1367 135.579 64.9795 135.06 64.665C134.54 64.3506 134.139 63.8994 133.856 63.3115C133.574 62.7236 133.433 62.0355 133.433 61.2471C133.433 60.0257 133.738 59.0755 134.349 58.3965C134.959 57.7129 135.807 57.3711 136.892 57.3711C137.94 57.3711 138.771 57.7197 139.387 58.417C140.007 59.1143 140.316 60.0576 140.316 61.2471ZM134.608 61.2471C134.608 62.2041 134.8 62.9333 135.183 63.4346C135.565 63.9359 136.128 64.1865 136.871 64.1865C137.614 64.1865 138.177 63.9382 138.56 63.4414C138.947 62.9401 139.141 62.2087 139.141 61.2471C139.141 60.2946 138.947 59.5723 138.56 59.0801C138.177 58.5833 137.609 58.335 136.857 58.335C136.115 58.335 135.554 58.5788 135.176 59.0664C134.798 59.554 134.608 60.2809 134.608 61.2471ZM147.439 65V60.1533C147.439 59.5426 147.3 59.0869 147.022 58.7861C146.744 58.4854 146.309 58.335 145.717 58.335C144.933 58.335 144.359 58.5469 143.994 58.9707C143.63 59.3945 143.447 60.0941 143.447 61.0693V65H142.312V57.5078H143.235L143.42 58.5332H143.475C143.707 58.1641 144.033 57.8792 144.452 57.6787C144.871 57.4736 145.339 57.3711 145.854 57.3711C146.756 57.3711 147.435 57.5898 147.891 58.0273C148.346 58.4603 148.574 59.1553 148.574 60.1123V65H147.439Z" fill="#4F4F4F"/>
<path d="M201.45 65H200.288V56.0381H197.123V55.0059H204.615V56.0381H201.45V65ZM207.021 57.5078V62.3682C207.021 62.9788 207.16 63.4346 207.438 63.7354C207.716 64.0361 208.152 64.1865 208.744 64.1865C209.528 64.1865 210.1 63.9723 210.46 63.5439C210.825 63.1156 211.007 62.416 211.007 61.4453V57.5078H212.142V65H211.205L211.041 63.9951H210.979C210.747 64.3643 210.424 64.6468 210.009 64.8428C209.599 65.0387 209.129 65.1367 208.601 65.1367C207.689 65.1367 207.006 64.9202 206.55 64.4873C206.099 64.0544 205.873 63.3617 205.873 62.4092V57.5078H207.021ZM217.72 65.1367C216.612 65.1367 215.737 64.7995 215.095 64.125C214.457 63.4505 214.138 62.514 214.138 61.3154C214.138 60.1077 214.434 59.1484 215.026 58.4375C215.623 57.7266 216.423 57.3711 217.426 57.3711C218.365 57.3711 219.107 57.681 219.654 58.3008C220.201 58.916 220.475 59.7295 220.475 60.7412V61.459H215.313C215.336 62.3385 215.557 63.0062 215.977 63.4619C216.4 63.9176 216.995 64.1455 217.761 64.1455C218.567 64.1455 219.365 63.9769 220.153 63.6396V64.6514C219.752 64.8245 219.372 64.9476 219.012 65.0205C218.656 65.098 218.226 65.1367 217.72 65.1367ZM217.412 58.3213C216.811 58.3213 216.33 58.5173 215.97 58.9092C215.614 59.3011 215.405 59.8434 215.341 60.5361H219.258C219.258 59.8206 219.098 59.2738 218.779 58.8955C218.46 58.5127 218.005 58.3213 217.412 58.3213Z" fill="#4F4F4F"/>
<path d="M280.097 65H278.948L276.932 58.3076C276.836 58.0114 276.729 57.6377 276.61 57.1865C276.492 56.7354 276.43 56.4642 276.426 56.373C276.326 56.9746 276.166 57.6331 275.947 58.3486L273.992 65H272.844L270.185 55.0059H271.415L272.994 61.1787C273.213 62.0446 273.372 62.8285 273.473 63.5303C273.596 62.6963 273.778 61.8805 274.02 61.083L275.811 55.0059H277.041L278.921 61.1377C279.14 61.8441 279.324 62.6416 279.475 63.5303C279.561 62.8831 279.725 62.0947 279.967 61.165L281.539 55.0059H282.77L280.097 65ZM287.329 65.1367C286.222 65.1367 285.347 64.7995 284.704 64.125C284.066 63.4505 283.747 62.514 283.747 61.3154C283.747 60.1077 284.043 59.1484 284.636 58.4375C285.233 57.7266 286.033 57.3711 287.035 57.3711C287.974 57.3711 288.717 57.681 289.264 58.3008C289.811 58.916 290.084 59.7295 290.084 60.7412V61.459H284.923C284.946 62.3385 285.167 63.0062 285.586 63.4619C286.01 63.9176 286.604 64.1455 287.37 64.1455C288.177 64.1455 288.974 63.9769 289.763 63.6396V64.6514C289.362 64.8245 288.981 64.9476 288.621 65.0205C288.266 65.098 287.835 65.1367 287.329 65.1367ZM287.021 58.3213C286.42 58.3213 285.939 58.5173 285.579 58.9092C285.224 59.3011 285.014 59.8434 284.95 60.5361H288.867C288.867 59.8206 288.708 59.2738 288.389 58.8955C288.07 58.5127 287.614 58.3213 287.021 58.3213ZM297.125 63.9951H297.063C296.539 64.7562 295.756 65.1367 294.712 65.1367C293.732 65.1367 292.969 64.8018 292.422 64.1318C291.88 63.4619 291.608 62.5094 291.608 61.2744C291.608 60.0394 291.882 59.0801 292.429 58.3965C292.976 57.7129 293.737 57.3711 294.712 57.3711C295.728 57.3711 296.507 57.7402 297.05 58.4785H297.139L297.091 57.9385L297.063 57.4121V54.3633H298.198V65H297.275L297.125 63.9951ZM294.855 64.1865C295.63 64.1865 296.191 63.9769 296.537 63.5576C296.888 63.1338 297.063 62.4525 297.063 61.5137V61.2744C297.063 60.2126 296.886 59.4561 296.53 59.0049C296.179 58.5492 295.617 58.3213 294.842 58.3213C294.176 58.3213 293.666 58.5811 293.311 59.1006C292.96 59.6156 292.784 60.3447 292.784 61.2881C292.784 62.2451 292.96 62.9674 293.311 63.4551C293.661 63.9427 294.176 64.1865 294.855 64.1865Z" fill="#4F4F4F"/>
<path d="M349.45 65H348.288V56.0381H345.123V55.0059H352.615V56.0381H349.45V65ZM359.082 65V60.1533C359.082 59.5426 358.943 59.0869 358.665 58.7861C358.387 58.4854 357.952 58.335 357.359 58.335C356.571 58.335 355.994 58.5492 355.63 58.9775C355.27 59.4059 355.09 60.1077 355.09 61.083V65H353.955V54.3633H355.09V57.583C355.09 57.9704 355.072 58.2917 355.035 58.5469H355.104C355.327 58.1868 355.644 57.9043 356.054 57.6992C356.468 57.4896 356.94 57.3848 357.469 57.3848C358.385 57.3848 359.071 57.6035 359.526 58.041C359.987 58.474 360.217 59.1644 360.217 60.1123V65H359.082ZM363.621 57.5078V62.3682C363.621 62.9788 363.76 63.4346 364.038 63.7354C364.316 64.0361 364.751 64.1865 365.344 64.1865C366.128 64.1865 366.7 63.9723 367.06 63.5439C367.424 63.1156 367.606 62.416 367.606 61.4453V57.5078H368.741V65H367.805L367.641 63.9951H367.579C367.347 64.3643 367.023 64.6468 366.608 64.8428C366.198 65.0387 365.729 65.1367 365.2 65.1367C364.289 65.1367 363.605 64.9202 363.149 64.4873C362.698 64.0544 362.473 63.3617 362.473 62.4092V57.5078H363.621Z" fill="#4F4F4F"/>
<path d="M428.536 65H427.374V55.0059H432.945V56.0381H428.536V59.6953H432.679V60.7275H428.536V65ZM437.854 57.3711C438.186 57.3711 438.485 57.3984 438.749 57.4531L438.592 58.5059C438.282 58.4375 438.008 58.4033 437.771 58.4033C437.165 58.4033 436.646 58.6494 436.213 59.1416C435.785 59.6338 435.57 60.2467 435.57 60.9805V65H434.436V57.5078H435.372L435.502 58.8955H435.557C435.835 58.4079 436.17 58.0319 436.562 57.7676C436.953 57.5033 437.384 57.3711 437.854 57.3711ZM441.285 65H440.15V57.5078H441.285V65ZM440.055 55.4775C440.055 55.2178 440.118 55.0286 440.246 54.9102C440.374 54.7871 440.533 54.7256 440.725 54.7256C440.907 54.7256 441.064 54.7871 441.196 54.9102C441.328 55.0332 441.395 55.2223 441.395 55.4775C441.395 55.7327 441.328 55.9242 441.196 56.0518C441.064 56.1748 440.907 56.2363 440.725 56.2363C440.533 56.2363 440.374 56.1748 440.246 56.0518C440.118 55.9242 440.055 55.7327 440.055 55.4775Z" fill="#4F4F4F"/>
<path d="M506.014 62.3408C506.014 63.2204 505.695 63.9062 505.057 64.3984C504.419 64.8906 503.553 65.1367 502.459 65.1367C501.274 65.1367 500.363 64.984 499.725 64.6787V63.5576C500.135 63.7308 500.581 63.8675 501.064 63.9678C501.548 64.068 502.026 64.1182 502.5 64.1182C503.275 64.1182 503.858 63.9723 504.25 63.6807C504.642 63.3844 504.838 62.9743 504.838 62.4502C504.838 62.1038 504.767 61.8213 504.626 61.6025C504.489 61.3792 504.257 61.1742 503.929 60.9873C503.605 60.8005 503.111 60.5885 502.445 60.3516C501.516 60.0189 500.85 59.6247 500.449 59.1689C500.053 58.7132 499.854 58.1185 499.854 57.3848C499.854 56.6146 500.144 56.0016 500.723 55.5459C501.301 55.0902 502.067 54.8623 503.02 54.8623C504.013 54.8623 504.927 55.0446 505.761 55.4092L505.398 56.4209C504.574 56.0745 503.771 55.9014 502.992 55.9014C502.377 55.9014 501.896 56.0335 501.55 56.2979C501.203 56.5622 501.03 56.929 501.03 57.3984C501.03 57.7448 501.094 58.0296 501.222 58.2529C501.349 58.4717 501.563 58.6745 501.864 58.8613C502.17 59.0436 502.634 59.2464 503.259 59.4697C504.307 59.8434 505.027 60.2445 505.419 60.6729C505.815 61.1012 506.014 61.6572 506.014 62.3408ZM512.494 65L512.269 63.9336H512.214C511.84 64.403 511.466 64.722 511.093 64.8906C510.724 65.0547 510.261 65.1367 509.705 65.1367C508.962 65.1367 508.379 64.9453 507.955 64.5625C507.536 64.1797 507.326 63.6351 507.326 62.9287C507.326 61.4157 508.536 60.6227 510.956 60.5498L512.228 60.5088V60.0439C512.228 59.4561 512.1 59.0231 511.845 58.7451C511.594 58.4626 511.191 58.3213 510.635 58.3213C510.01 58.3213 509.304 58.5127 508.516 58.8955L508.167 58.0273C508.536 57.8268 508.939 57.6696 509.377 57.5557C509.819 57.4417 510.261 57.3848 510.703 57.3848C511.596 57.3848 512.257 57.583 512.686 57.9795C513.118 58.376 513.335 59.0117 513.335 59.8867V65H512.494ZM509.931 64.2002C510.637 64.2002 511.191 64.0065 511.592 63.6191C511.997 63.2318 512.2 62.6895 512.2 61.9922V61.3154L511.065 61.3633C510.163 61.3952 509.511 61.5365 509.11 61.7871C508.714 62.0332 508.516 62.4183 508.516 62.9424C508.516 63.3525 508.639 63.6647 508.885 63.8789C509.135 64.0931 509.484 64.2002 509.931 64.2002ZM518.1 64.2002C518.3 64.2002 518.494 64.1865 518.681 64.1592C518.868 64.1273 519.016 64.0954 519.125 64.0635V64.9316C519.002 64.9909 518.82 65.0387 518.578 65.0752C518.341 65.1162 518.127 65.1367 517.936 65.1367C516.486 65.1367 515.762 64.3734 515.762 62.8467V58.3896H514.688V57.8428L515.762 57.3711L516.24 55.7715H516.896V57.5078H519.07V58.3896H516.896V62.7988C516.896 63.25 517.004 63.5964 517.218 63.8379C517.432 64.0794 517.726 64.2002 518.1 64.2002Z" fill="#4F4F4F"/>
<rect x="27" y="84" width="65" height="65" fill="#E0E0E0"/>
<rect x="102" y="84" width="65" height="65" fill="#E0E0E0"/>
<rect x="177" y="84" width="65" height="65" fill="#E0E0E0"/>
<rect x="252" y="84" width="65" height="65" fill="#E0E0E0"/>
<rect x="327" y="84" width="65" height="65" fill="#E0E0E0"/>
<rect x="402" y="84" width="65" height="65" fill="#E0E0E0"/>
<rect x="477" y="84" width="65" height="65" fill="#E0E0E0"/>
<rect x="27" y="157" width="65" height="65" fill="#E0E0E0"/>
<rect x="102" y="157" width="65" height="65" fill="#E0E0E0"/>
<rect x="177" y="157" width="65" height="65" fill="#219653"/>
<rect x="252" y="157" width="65" height="65" fill="#219653" fill-opacity="0.8"/>
<rect x="327" y="157" width="65" height="65" fill="#E0E0E0"/>
<rect x="402" y="157" width="65" height="65" fill="#E0E0E0"/>
<rect x="477" y="157" width="65" height="65" fill="#E0E0E0"/>
<rect x="27" y="230" width="65" height="65" fill="#E0E0E0"/>
<rect x="102" y="230" width="65" height="65" fill="#E0E0E0"/>
<rect x="177" y="230" width="65" height="65" fill="#E0E0E0"/>
<rect x="252" y="230" width="65" height="65" fill="#E0E0E0"/>
<rect x="327" y="230" width="65" height="65" fill="#E0E0E0"/>
<rect x="402" y="230" width="65" height="65" fill="#E0E0E0"/>
<rect x="477" y="230" width="65" height="65" fill="#E0E0E0"/>
<rect x="27" y="303" width="65" height="65" fill="#E0E0E0"/>
<rect x="102" y="303" width="65" height="65" fill="#E0E0E0"/>
<rect x="177" y="303" width="65" height="65" fill="#E0E0E0"/>
<rect x="252" y="303" width="65" height="65" fill="#E0E0E0"/>
<rect x="328" y="304" width="63" height="63" rx="2" fill="#219653" fill-opacity="0.4" stroke="#2D9CDB" stroke-width="2"/>
<rect x="402" y="303" width="65" height="65" fill="#219653" fill-opacity="0.4"/>
<rect x="477" y="303" width="65" height="65" fill="#E0E0E0"/>
<rect x="28" y="376" width="65" height="65" fill="#E0E0E0"/>
<rect x="103" y="376" width="65" height="65" fill="#219653" fill-opacity="0.6"/>
<rect x="178" y="376" width="65" height="65" fill="#E0E0E0"/>
<rect x="253" y="376" width="65" height="65" fill="#E0E0E0"/>
<rect x="328" y="376" width="65" height="65" fill="#E0E0E0"/>
<rect x="403" y="376" width="65" height="65" fill="#E0E0E0"/>
<rect x="478" y="376" width="65" height="65" fill="#E0E0E0"/>
<rect x="27" y="449" width="65" height="65" fill="#E0E0E0"/>
<rect x="102" y="449" width="65" height="65" fill="#E0E0E0"/>
<rect x="177" y="449" width="65" height="65" fill="#E0E0E0"/>
<rect x="252" y="449" width="65" height="65" fill="#E0E0E0"/>
<rect x="327" y="449" width="65" height="65" fill="#E0E0E0"/>
<rect x="402" y="449" width="65" height="65" fill="#E0E0E0"/>
<rect x="477" y="449" width="65" height="65" fill="#E0E0E0"/>
<path d="M252.122 17.122L259.182 10.061L252.122 3L250 5.122L254.94 10.061L250 15L252.122 17.122Z" fill="#BDBDBD"/>
<path d="M231.06 3L224 10.061L231.06 17.122L233.182 15L228.242 10.061L233.182 5.122L231.06 3Z" fill="#BDBDBD"/>
<defs>
<filter id="filter0_b" x="492" y="537" width="23" height="23" filterUnits="userSpaceOnUse" color-interpolation-filters="sRGB">
<feFlood flood-opacity="0" result="BackgroundImageFix"/>
<feGaussianBlur in="BackgroundImage" stdDeviation="2"/>
<feComposite in2="SourceAlpha" operator="in" result="effect1_backgroundBlur"/>
<feBlend mode="normal" in="SourceGraphic" in2="effect1_backgroundBlur" result="shape"/>
</filter>
</defs>
</svg>
